<svg width="31" height="31" viewBox="0 0 31 31" fill="none" xmlns="http://www.w3.org/2000/svg">
<circle cx="15.5" cy="15.5" r="15.5" fill="#262A82"/>
<mask id="path-2-inside-1_105_866" fill="white">
<path fill-rule="evenodd" clip-rule="evenodd" d="M15 8H8V15H15V8ZM24 8H17V15H24V8ZM8 17H15V24H8V17ZM24 17H17V24H24V17Z"/>
</mask>
<path d="M8 8V7H7V8H8ZM15 8H16V7H15V8ZM8 15H7V16H8V15ZM15 15V16H16V15H15ZM17 8V7H16V8H17ZM24 8H25V7H24V8ZM17 15H16V16H17V15ZM24 15V16H25V15H24ZM15 17H16V16H15V17ZM8 17V16H7V17H8ZM15 24V25H16V24H15ZM8 24H7V25H8V24ZM17 17V16H16V17H17ZM24 17H25V16H24V17ZM17 24H16V25H17V24ZM24 24V25H25V24H24ZM8 9H15V7H8V9ZM9 15V8H7V15H9ZM15 14H8V16H15V14ZM14 8V15H16V8H14ZM17 9H24V7H17V9ZM18 15V8H16V15H18ZM24 14H17V16H24V14ZM23 8V15H25V8H23ZM15 16H8V18H15V16ZM16 24V17H14V24H16ZM8 25H15V23H8V25ZM7 17V24H9V17H7ZM17 18H24V16H17V18ZM18 24V17H16V24H18ZM24 23H17V25H24V23ZM23 17V24H25V17H23Z" fill="white" mask="url(#path-2-inside-1_105_866)"/>
</svg>
