<svg width="46" height="46" viewBox="0 0 46 46" fill="none" xmlns="http://www.w3.org/2000/svg">
<path fill-rule="evenodd" clip-rule="evenodd" d="M23 44C34.598 44 44 34.598 44 23C44 11.402 34.598 2 23 2C11.402 2 2 11.402 2 23C2 34.598 11.402 44 23 44ZM23 45C35.1503 45 45 35.1503 45 23C45 10.8497 35.1503 1 23 1C10.8497 1 1 10.8497 1 23C1 35.1503 10.8497 45 23 45ZM13.881 30L18.8201 34.1159L18.1799 34.8841L12.1799 29.8841L11.719 29.5L12.1799 29.1159L18.1799 24.1159L18.8201 24.8841L13.881 29H26.5V30H13.881ZM27.6799 12.3841L32.619 16.5L20 16.5V17.5L32.619 17.5L27.6799 21.6159L28.3201 22.3841L34.3201 17.3841L34.781 17L34.3201 16.6159L28.3201 11.6159L27.6799 12.3841Z" fill="#262A82"/>
<path d="M18.8201 34.1159L19.2042 34.436L19.5243 34.0519L19.1402 33.7318L18.8201 34.1159ZM13.881 30V29.5H12.5L13.5609 30.3841L13.881 30ZM18.1799 34.8841L17.8598 35.2682L18.2439 35.5883L18.564 35.2042L18.1799 34.8841ZM12.1799 29.8841L12.5 29.5H12.5L12.1799 29.8841ZM11.719 29.5L11.3989 29.1159L10.9379 29.5L11.3989 29.8841L11.719 29.5ZM12.1799 29.1159L12.5 29.5H12.5L12.1799 29.1159ZM18.1799 24.1159L18.564 23.7958L18.2439 23.4117L17.8598 23.7318L18.1799 24.1159ZM18.8201 24.8841L19.1402 25.2682L19.5243 24.9481L19.2042 24.564L18.8201 24.8841ZM13.881 29L13.5609 28.6159L12.5 29.5H13.881V29ZM26.5 29H27V28.5H26.5V29ZM26.5 30V30.5H27V30H26.5ZM32.619 16.5V17H34L32.9391 16.1159L32.619 16.5ZM27.6799 12.3841L27.2958 12.064L26.9757 12.4481L27.3598 12.7682L27.6799 12.3841ZM20 16.5V16H19.5V16.5H20ZM20 17.5H19.5V18H20V17.5ZM32.619 17.5L32.9391 17.8841L34 17H32.619V17.5ZM27.6799 21.6159L27.3598 21.2318L26.9757 21.5519L27.2958 21.936L27.6799 21.6159ZM28.3201 22.3841L27.936 22.7042L28.2561 23.0883L28.6402 22.7682L28.3201 22.3841ZM34.3201 17.3841L34.6402 17.7682L34.3201 17.3841ZM34.781 17L35.1011 17.3841L35.562 17L35.1011 16.6159L34.781 17ZM34.3201 16.6159L34 17L34.3201 16.6159ZM28.3201 11.6159L28.6402 11.2318L28.2561 10.9117L27.936 11.2958L28.3201 11.6159ZM43.5 23C43.5 34.3218 34.3218 43.5 23 43.5V44.5C34.8741 44.5 44.5 34.8741 44.5 23H43.5ZM23 2.5C34.3218 2.5 43.5 11.6782 43.5 23H44.5C44.5 11.1259 34.8741 1.5 23 1.5V2.5ZM2.5 23C2.5 11.6782 11.6782 2.5 23 2.5V1.5C11.1259 1.5 1.5 11.1259 1.5 23H2.5ZM23 43.5C11.6782 43.5 2.5 34.3218 2.5 23H1.5C1.5 34.8741 11.1259 44.5 23 44.5V43.5ZM44.5 23C44.5 34.8741 34.8741 44.5 23 44.5V45.5C35.4264 45.5 45.5 35.4264 45.5 23H44.5ZM23 1.5C34.8741 1.5 44.5 11.1259 44.5 23H45.5C45.5 10.5736 35.4264 0.5 23 0.5V1.5ZM1.5 23C1.5 11.1259 11.1259 1.5 23 1.5V0.5C10.5736 0.5 0.5 10.5736 0.5 23H1.5ZM23 44.5C11.1259 44.5 1.5 34.8741 1.5 23H0.5C0.5 35.4264 10.5736 45.5 23 45.5V44.5ZM19.1402 33.7318L14.2011 29.6159L13.5609 30.3841L18.5 34.5L19.1402 33.7318ZM18.564 35.2042L19.2042 34.436L18.436 33.7958L17.7958 34.564L18.564 35.2042ZM11.8598 30.2682L17.8598 35.2682L18.5 34.5L12.5 29.5L11.8598 30.2682ZM11.3989 29.8841L11.8598 30.2682L12.5 29.5L12.0391 29.1159L11.3989 29.8841ZM11.8598 28.7318L11.3989 29.1159L12.0391 29.8841L12.5 29.5L11.8598 28.7318ZM17.8598 23.7318L11.8598 28.7318L12.5 29.5L18.5 24.5L17.8598 23.7318ZM19.2042 24.564L18.564 23.7958L17.7958 24.436L18.436 25.2042L19.2042 24.564ZM14.2011 29.3841L19.1402 25.2682L18.5 24.5L13.5609 28.6159L14.2011 29.3841ZM26.5 28.5H13.881V29.5H26.5V28.5ZM27 30V29H26V30H27ZM13.881 30.5H26.5V29.5H13.881V30.5ZM32.9391 16.1159L28 12L27.3598 12.7682L32.2989 16.8841L32.9391 16.1159ZM20 17L32.619 17V16L20 16V17ZM20.5 17.5V16.5H19.5V17.5H20.5ZM32.619 17L20 17V18L32.619 18V17ZM28 22L32.9391 17.8841L32.2989 17.1159L27.3598 21.2318L28 22ZM28.7042 22.064L28.064 21.2958L27.2958 21.936L27.936 22.7042L28.7042 22.064ZM34 17L28 22L28.6402 22.7682L34.6402 17.7682L34 17ZM34.4609 16.6159L34 17L34.6402 17.7682L35.1011 17.3841L34.4609 16.6159ZM34 17L34.4609 17.3841L35.1011 16.6159L34.6402 16.2318L34 17ZM28 12L34 17L34.6402 16.2318L28.6402 11.2318L28 12ZM28.064 12.7042L28.7042 11.936L27.936 11.2958L27.2958 12.064L28.064 12.7042Z" fill="#262A82"/>
</svg>
