<svg width="43" height="44" viewBox="0 0 43 44" fill="none" xmlns="http://www.w3.org/2000/svg">
<rect x="1" y="1.08542" width="41" height="41" stroke="#262A82" stroke-width="2"/>
<path d="M27.25 26.4916C27.25 27.9255 26.8248 29.3272 26.0282 30.5195C25.2315 31.7117 24.0992 32.641 22.7745 33.1897C21.4497 33.7384 19.992 33.882 18.5856 33.6023C17.1792 33.3225 15.8874 32.632 14.8735 31.6181C13.8595 30.6042 13.169 29.3123 12.8893 27.906C12.6096 26.4996 12.7531 25.0419 13.3019 23.7171C13.8506 22.3924 14.7799 21.2601 15.9721 20.4634C17.1644 19.6668 18.5661 19.2416 20 19.2416" stroke="#262A82" stroke-width="1.5"/>
<path d="M31.7966 29.3705C31.7769 29.1932 31.5969 29.0764 31.5254 28.9148C31.3235 28.4587 31.1817 27.9603 31.0642 27.4771C30.8699 26.6783 30.6571 25.7742 30.2558 25.052C30.0275 24.641 29.8552 23.969 29.404 23.7553C28.7811 23.4602 28.3174 23.2295 27.6191 23.1422C26.6311 23.0187 25.1344 22.5985 24.2771 23.3701C23.9044 23.7055 23.3593 23.9942 22.8719 24.1025C22.8007 24.1184 22.7387 24.2322 22.7146 24.2924C22.6591 24.4312 22.5042 24.3722 22.3999 24.466C22.2526 24.5986 22.324 23.9337 22.324 23.815C22.324 22.8696 22.4103 21.8764 22.1666 20.9558C21.8615 19.8031 21.5546 18.6646 21.2498 17.5216C21.0785 16.8794 20.3595 15.693 19.7849 15.4057" stroke="#262A82" stroke-width="3" stroke-linecap="round"/>
<path d="M19.1014 16.2847C17.7118 16.2847 15.9237 16.2203 14.8913 17.31C14.3682 17.8622 13.6843 18.2146 13.242 18.878C13.0413 19.179 12.6212 20.1909 13.242 20.1909" stroke="#262A82" stroke-linecap="round"/>
<path d="M19.5896 12.0854H19.8826" stroke="#262A82" stroke-width="4" stroke-linecap="round"/>
</svg>
