<svg width="43" height="44" viewBox="0 0 43 44" fill="none" xmlns="http://www.w3.org/2000/svg">
<rect x="1" y="1.08542" width="41" height="41" stroke="#262A82" stroke-width="2"/>
<path d="M37.5 21.0854C37.5 23.302 35.846 25.4187 32.9278 27.0104C30.0286 28.5918 25.9892 29.5854 21.5 29.5854C17.0108 29.5854 12.9714 28.5918 10.0722 27.0104C7.15402 25.4187 5.5 23.302 5.5 21.0854C5.5 18.8689 7.15402 16.7521 10.0722 15.1604C12.9714 13.579 17.0108 12.5854 21.5 12.5854C25.9892 12.5854 30.0286 13.579 32.9278 15.1604C35.846 16.7521 37.5 18.8689 37.5 21.0854Z" stroke="#262A82"/>
<circle cx="22" cy="21.0854" r="6" fill="#262A82"/>
<line x1="16.4472" y1="9.86181" x2="28.4472" y2="33.8618" stroke="#262A82"/>
</svg>
