<svg width="31" height="31" viewBox="0 0 31 31" fill="none" xmlns="http://www.w3.org/2000/svg">
<circle cx="15.5" cy="15.5" r="15.5" fill="#262A82"/>
<path fill-rule="evenodd" clip-rule="evenodd" d="M24.777 18C24.9229 17.3568 25 16.6874 25 16C25 15.1325 24.8773 14.2937 24.6482 13.5H20.3216C20.4353 14.2708 20.5 15.1038 20.5 16C20.5 16.7057 20.4599 17.3722 20.3873 18H24.777ZM24.4879 19H20.2395C19.9019 20.8664 19.2776 22.3425 18.6162 23.4447C18.2741 24.0149 17.9216 24.4859 17.5931 24.8594C20.8032 24.2861 23.4238 22.0106 24.4879 19ZM16 26C21.5228 26 26 21.5228 26 16C26 10.4772 21.5228 6 16 6C10.4772 6 6 10.4772 6 16C6 21.5228 10.4772 26 16 26ZM14.7511 7.08596C11.5673 7.52795 8.91624 9.63535 7.70591 12.5H12.792C13.0455 11.0279 13.4363 9.78775 13.852 8.80518C14.1501 8.10057 14.4631 7.5236 14.7511 7.08596ZM13.654 13.5C13.5566 14.2734 13.5 15.1079 13.5 16C13.5 16.703 13.5351 17.3702 13.5977 18H19.3802C19.457 17.3769 19.5 16.7105 19.5 16C19.5 15.0958 19.4303 14.263 19.31 13.5H13.654ZM12.6465 13.5C12.5534 14.2788 12.5 15.1132 12.5 16C12.5 16.6998 12.5332 17.367 12.593 18H7.22302C7.07706 17.3568 7 16.6874 7 16C7 15.1325 7.12273 14.2937 7.35177 13.5H12.6465ZM7.51212 19C8.61401 22.1175 11.3848 24.4467 14.7511 24.914C14.4631 24.4764 14.1501 23.8994 13.852 23.1948C13.3901 22.1029 12.9589 20.693 12.7127 19H7.51212ZM19.1156 12.5H13.8076C14.0479 11.1798 14.4023 10.0709 14.773 9.19482C15.1048 8.41063 15.4466 7.81969 15.7257 7.43337C15.8505 7.26057 15.9567 7.13706 16.0376 7.05732L16.04 7.05893C16.1523 7.13299 16.3064 7.25489 16.4895 7.43086C16.8544 7.78141 17.3115 8.32436 17.7588 9.06975C18.279 9.93674 18.7845 11.0755 19.1156 12.5ZM20.1404 12.5C19.7879 10.8679 19.2174 9.55715 18.6162 8.55525C18.2741 7.98508 17.9217 7.51415 17.5931 7.14055C20.623 7.68174 23.1276 9.7392 24.2941 12.5H20.1404ZM14.773 22.8052C14.3564 21.8206 13.9604 20.5421 13.7238 19H19.2221C18.8999 20.6605 18.3384 21.9641 17.7588 22.9303C17.3115 23.6756 16.8544 24.2186 16.4895 24.5691C16.3064 24.7451 16.1523 24.867 16.04 24.9411L16.0376 24.9427C15.9567 24.8629 15.8505 24.7394 15.7257 24.5666C15.4466 24.1803 15.1048 23.5894 14.773 22.8052Z" fill="white"/>
</svg>
