<svg width="31" height="31" viewBox="0 0 31 31" fill="none" xmlns="http://www.w3.org/2000/svg">
<circle cx="15.5" cy="15.5" r="15.5" fill="#262A82"/>
<path fill-rule="evenodd" clip-rule="evenodd" d="M17.7684 20.3405L18.0008 23.9857L28 23.3485L27.888 21.5914L19.8695 22.1025L19.7473 20.1859L23.4035 19.9003L23.2916 18.2966L19.6417 18.5293L19.5152 16.5438L26.8948 16.0734L26.7828 14.3164L19.4032 14.7867L19.2895 13.0025L23.1063 12.7593L22.9944 11.0022L19.1775 11.2455L19.1215 10.3666L19.8069 9.21179L26.9417 8.75706L26.8297 7L18.2354 7.54776H17.0244L16.9791 7.62782L16.9583 7.62915L16.9603 7.66106L12.1513 16.1655L9.44969 7.54776H5.6196L9.9028 20.1495C9.85787 20.2308 9.81305 20.3138 9.76784 20.3975C9.53817 20.8226 9.29823 21.2667 8.97948 21.6199H4.59872L3 23.4324H11.0997C11.5899 22.8738 12.0373 22.2697 12.442 21.6199L17.2977 13.4392L17.7684 20.3405Z" fill="white"/>
</svg>
