<svg width="133" height="91" viewBox="0 0 133 91" fill="none" xmlns="http://www.w3.org/2000/svg">
<path fill-rule="evenodd" clip-rule="evenodd" d="M78.5199 70.9279L79.7552 90.3089L132.919 86.9205L132.323 77.5787L89.6905 80.2959L89.0411 70.1061L108.48 68.5877L107.885 60.0613L88.4797 61.2981L87.8069 50.7418L127.043 48.2411L126.447 38.8993L87.2115 41.3999L86.6069 31.9139L106.9 30.6205L106.305 21.2787L86.0116 22.572L85.7138 17.8995L89.3582 11.7595L127.292 9.34182L126.697 0L81.0025 2.91228H74.5641L74.3234 3.33797L74.2126 3.34503L74.2234 3.51479L48.655 48.7305L34.2914 2.91228H13.9277L36.7004 69.9123C36.4615 70.3449 36.2232 70.786 35.9828 71.2309C34.7618 73.4912 33.486 75.8526 31.7914 77.7305H8.5L0 87.3668H43.0641C45.6701 84.3971 48.0489 81.185 50.2005 77.7305L76.0171 34.2359L78.5199 70.9279Z" fill="#262A82"/>
</svg>
