<svg width="31" height="31" viewBox="0 0 31 31" fill="none" xmlns="http://www.w3.org/2000/svg">
<circle cx="15.5" cy="15.5" r="15.5" fill="#262A82"/>
<path d="M13.4659 20.0909V19.9886C13.4773 18.9034 13.5909 18.0398 13.8068 17.3977C14.0227 16.7557 14.3295 16.2358 14.7273 15.8381C15.125 15.4403 15.6023 15.0739 16.1591 14.7386C16.4943 14.5341 16.7955 14.2926 17.0625 14.0142C17.3295 13.7301 17.5398 13.4034 17.6932 13.0341C17.8523 12.6648 17.9318 12.2557 17.9318 11.8068C17.9318 11.25 17.8011 10.767 17.5398 10.358C17.2784 9.94886 16.929 9.63352 16.4915 9.41193C16.054 9.19034 15.5682 9.07954 15.0341 9.07954C14.5682 9.07954 14.1193 9.17614 13.6875 9.36932C13.2557 9.5625 12.8949 9.86648 12.6051 10.2812C12.3153 10.696 12.1477 11.2386 12.1023 11.9091H9.95455C10 10.9432 10.25 10.1165 10.7045 9.42898C11.1648 8.74148 11.7699 8.21591 12.5199 7.85227C13.2756 7.48864 14.1136 7.30682 15.0341 7.30682C16.0341 7.30682 16.9034 7.50568 17.642 7.90341C18.3864 8.30114 18.9602 8.84659 19.3636 9.53977C19.7727 10.233 19.9773 11.0227 19.9773 11.9091C19.9773 12.5341 19.8807 13.0994 19.6875 13.6051C19.5 14.1108 19.2273 14.5625 18.8693 14.9602C18.517 15.358 18.0909 15.7102 17.5909 16.017C17.0909 16.3295 16.6903 16.6591 16.3892 17.0057C16.0881 17.3466 15.8693 17.7528 15.733 18.2244C15.5966 18.696 15.5227 19.2841 15.5114 19.9886V20.0909H13.4659ZM14.5568 25.1364C14.1364 25.1364 13.7756 24.9858 13.4744 24.6847C13.1733 24.3835 13.0227 24.0227 13.0227 23.6023C13.0227 23.1818 13.1733 22.821 13.4744 22.5199C13.7756 22.2187 14.1364 22.0682 14.5568 22.0682C14.9773 22.0682 15.3381 22.2187 15.6392 22.5199C15.9403 22.821 16.0909 23.1818 16.0909 23.6023C16.0909 23.8807 16.0199 24.1364 15.8778 24.3693C15.7415 24.6023 15.5568 24.7898 15.3239 24.9318C15.0966 25.0682 14.8409 25.1364 14.5568 25.1364Z" fill="white"/>
</svg>
